<svg id="Layer_1" height="512" viewBox="0 0 256 256" width="512" xmlns="http://www.w3.org/2000/svg"><g><path d="m90.473 207.621h39.691v-3.691c0-2.925-2.371-5.296-5.296-5.296h-29.099c-2.925 0-5.296 2.371-5.296 5.296z" fill="#ef6d7a"/><path d="m130.164 209.121h-39.691c-.828 0-1.5-.671-1.5-1.5v-3.691c0-3.747 3.049-6.796 6.796-6.796h29.1c3.747 0 6.796 3.049 6.796 6.796v3.691c-.001.829-.673 1.5-1.501 1.5zm-38.191-3h36.691v-2.191c0-2.093-1.703-3.796-3.796-3.796h-29.1c-2.093 0-3.796 1.703-3.796 3.796v2.191z" fill="#3a312a"/><path d="m85.409 207.621h49.818c2.925 0 5.296 2.371 5.296 5.296v2.692h-60.41v-2.692c0-2.925 2.371-5.296 5.296-5.296z" fill="#ef6d7a"/><path d="m140.523 217.109h-60.41c-.828 0-1.5-.671-1.5-1.5v-2.692c0-3.747 3.049-6.795 6.796-6.795h49.818c3.747 0 6.796 3.049 6.796 6.796v2.692c0 .828-.671 1.499-1.5 1.499zm-58.91-3h57.41v-1.192c0-2.093-1.703-3.796-3.796-3.796h-49.818c-2.093 0-3.796 1.703-3.796 3.795z" fill="#3a312a"/><path d="m81.112 190.147h-28.889c-5.966 0-10.802 4.836-10.802 10.802v14.66h13.979v-12.731c0-2.344 1.9-4.244 4.244-4.244h21.468c2.344 0 4.244-1.9 4.244-4.244 0-2.343-1.9-4.243-4.244-4.243z" fill="#87796f"/><path d="m55.4 217.109h-13.979c-.828 0-1.5-.671-1.5-1.5v-14.66c0-6.784 5.519-12.302 12.303-12.302h28.889c3.167 0 5.743 2.577 5.743 5.744s-2.576 5.744-5.743 5.744h-21.469c-1.513 0-2.743 1.231-2.743 2.744v12.731c-.001.828-.673 1.499-1.501 1.499zm-12.479-3h10.979v-11.231c0-3.167 2.576-5.744 5.743-5.744h21.469c1.513 0 2.743-1.231 2.743-2.744s-1.23-2.744-2.743-2.744h-28.888c-5.13 0-9.303 4.173-9.303 9.302z" fill="#3a312a"/><path d="m139.525 190.147h28.889c5.966 0 10.802 4.836 10.802 10.802v14.66h-13.979v-12.731c0-2.344-1.9-4.244-4.244-4.244h-21.468c-2.344 0-4.244-1.9-4.244-4.244 0-2.343 1.9-4.243 4.244-4.243z" fill="#87796f"/><path d="m179.216 217.109h-13.98c-.828 0-1.5-.671-1.5-1.5v-12.731c0-1.513-1.23-2.744-2.743-2.744h-21.469c-3.167 0-5.743-2.577-5.743-5.744s2.576-5.744 5.743-5.744h28.889c6.784 0 12.303 5.518 12.303 12.302v14.66c0 .83-.672 1.501-1.5 1.501zm-12.48-3h10.98v-13.16c0-5.129-4.173-9.302-9.303-9.302h-28.889c-1.513 0-2.743 1.231-2.743 2.744s1.23 2.744 2.743 2.744h21.469c3.167 0 5.743 2.577 5.743 5.744z" fill="#3a312a"/><path d="m85.689 239.823h110.002v-11.989c0-6.751-5.473-12.225-12.225-12.225h-146.296c-6.751 0-12.225 5.473-12.225 12.225v11.989h45.637z" fill="#8ac5dc"/><path d="m195.69 241.323h-110.001c-.828 0-1.5-.671-1.5-1.5s.672-1.5 1.5-1.5h108.501v-10.489c0-5.914-4.811-10.725-10.724-10.725h-146.296c-5.913 0-10.725 4.811-10.725 10.725v10.489h44.138c.828 0 1.5.671 1.5 1.5s-.672 1.5-1.5 1.5h-45.638c-.828 0-1.5-.671-1.5-1.5v-11.989c0-7.568 6.157-13.725 13.725-13.725h146.297c7.567 0 13.724 6.157 13.724 13.725v11.989c-.001.828-.672 1.5-1.501 1.5z" fill="#3a312a"/><path d="m194.193 227.813v10.514h-14.978v-10.514c0-5.901-4.803-10.704-10.704-10.704h14.978c5.901 0 10.704 4.803 10.704 10.704z" fill="#6ca6be"/><path d="m32.162 117.755v44.52c0 15.393 12.479 27.872 27.872 27.872h100.57c15.393 0 27.872-12.479 27.872-27.872v-80.279h-156.314v20.915z" fill="#d7e057"/><path d="m160.604 191.647h-100.571c-16.195 0-29.371-13.176-29.371-29.372v-44.521c0-.829.672-1.5 1.5-1.5s1.5.671 1.5 1.5v44.521c0 14.541 11.83 26.372 26.371 26.372h100.57c14.541 0 26.371-11.83 26.371-26.372v-78.779h-153.312v19.415c0 .829-.672 1.5-1.5 1.5s-1.5-.671-1.5-1.5v-20.915c0-.829.672-1.5 1.5-1.5h156.313c.828 0 1.5.671 1.5 1.5v80.279c0 16.196-13.176 29.372-29.371 29.372z" fill="#3a312a"/><path d="m16.5 78.86v3.137h187.637v-3.137c0-14.728-11.94-26.668-26.668-26.668h-134.301c-14.728 0-26.668 11.94-26.668 26.668z" fill="#ed6e7a"/><path d="m204.137 83.497h-187.637c-.828 0-1.5-.671-1.5-1.5v-3.137c0-15.532 12.636-28.168 28.168-28.168h134.301c15.532 0 28.168 12.636 28.168 28.168v3.137c0 .828-.672 1.5-1.5 1.5zm-186.137-3h184.637v-1.637c0-13.878-11.29-25.168-25.168-25.168h-134.301c-13.878 0-25.168 11.29-25.168 25.168z" fill="#3a312a"/><path d="m77.865 52.192v-12.133c0-6.66 5.399-12.059 12.059-12.059h40.787c6.66 0 12.059 5.399 12.059 12.059v12.133z" fill="#87796f"/><path d="m142.771 53.692h-64.906c-.828 0-1.5-.671-1.5-1.5v-12.133c0-7.477 6.083-13.559 13.56-13.559h40.787c7.477 0 13.56 6.083 13.56 13.559v12.133c-.001.829-.672 1.5-1.501 1.5zm-63.406-3h61.906v-10.633c0-5.822-4.737-10.559-10.56-10.559h-40.786c-5.822 0-10.56 4.737-10.56 10.559z" fill="#3a312a"/><path d="m225.778 177.089s3.408 12.659 13.222 13.246c0 0-13.1 4.525-13.321 14.202 0 0-2.579-13.572-12.925-14.059 0 0 12.05-1.825 13.024-13.389z" fill="#d7e057"/><path d="m225.678 206.037c-.713 0-1.335-.506-1.473-1.217-.023-.124-2.494-12.417-11.521-12.842-.77-.037-1.388-.651-1.428-1.421-.04-.771.511-1.445 1.273-1.561.441-.069 10.895-1.817 11.754-12.033.061-.725.635-1.301 1.359-1.367.735-.063 1.394.399 1.584 1.102.031.116 3.259 11.626 11.863 12.14.714.043 1.297.584 1.396 1.292.098.708-.318 1.388-.994 1.622-.121.042-12.119 4.311-12.313 12.819-.018.767-.61 1.396-1.375 1.46-.041.004-.083.006-.125.006zm-7.74-15.73c3.878 1.969 6.23 5.746 7.586 8.876 2.026-4.022 5.941-6.787 8.949-8.427-4.134-1.842-6.783-5.651-8.334-8.722-1.793 4.361-5.271 6.868-8.201 8.273z" fill="#3a312a"/><path d="m204.079 194.069s2.411 8.954 9.352 9.369c0 0-9.266 3.201-9.422 10.045 0 0-1.824-9.6-9.142-9.944 0 .001 8.524-1.291 9.212-9.47z" fill="#d7e057"/><path d="m204.008 214.984c-.714 0-1.337-.507-1.473-1.22-.016-.082-1.703-8.441-7.738-8.725-.771-.037-1.388-.651-1.428-1.421-.04-.771.511-1.445 1.273-1.561.296-.047 7.363-1.243 7.941-8.114.061-.726.636-1.303 1.361-1.368.717-.058 1.392.399 1.581 1.102.022.079 2.229 7.919 7.995 8.264.714.043 1.299.585 1.396 1.294s-.32 1.388-.996 1.622c-.081.028-8.283 2.953-8.413 8.662-.018.767-.611 1.397-1.377 1.461-.039.002-.081.004-.122.004zm-4.519-11.528c2.107 1.333 3.523 3.394 4.447 5.279 1.376-2.232 3.515-3.871 5.364-4.972-2.286-1.269-3.884-3.35-4.941-5.224-1.173 2.288-3.014 3.876-4.87 4.917z" fill="#3a312a"/><path d="m204.079 167.412s2.411 8.954 9.352 9.37c0 0-9.266 3.201-9.422 10.045 0 0-1.824-9.6-9.142-9.944 0-.001 8.524-1.292 9.212-9.471z" fill="#d7e057"/><path d="m204.008 188.327c-.714 0-1.337-.507-1.473-1.22-.016-.081-1.703-8.442-7.738-8.725-.771-.037-1.388-.651-1.428-1.421-.04-.771.511-1.445 1.273-1.561.296-.047 7.363-1.243 7.941-8.114.061-.725.636-1.303 1.361-1.368.717-.064 1.392.399 1.581 1.102.022.079 2.229 7.92 7.995 8.265.714.043 1.299.584 1.396 1.293s-.32 1.388-.997 1.622c-.08.028-8.282 2.952-8.412 8.662-.018.767-.611 1.398-1.377 1.461-.039.002-.081.004-.122.004zm-4.519-11.528c2.107 1.333 3.523 3.394 4.447 5.28 1.376-2.232 3.515-3.872 5.364-4.972-2.286-1.27-3.884-3.35-4.941-5.224-1.173 2.286-3.014 3.875-4.87 4.916z" fill="#3a312a"/><ellipse cx="195.25" cy="60.162" fill="#8ac5dc" rx="43.75" ry="43.75" transform="matrix(.994 -.113 .113 .994 -5.554 22.48)"/><path d="m195.25 105.412c-24.951 0-45.25-20.299-45.25-45.25s20.299-45.25 45.25-45.25 45.25 20.299 45.25 45.25-20.299 45.25-45.25 45.25zm0-87.5c-23.297 0-42.25 18.953-42.25 42.25s18.953 42.25 42.25 42.25 42.25-18.953 42.25-42.25-18.953-42.25-42.25-42.25z" fill="#3a312a"/><ellipse cx="195.25" cy="60.162" fill="#d5dc57" rx="34.565" ry="34.565" transform="matrix(.993 -.122 .122 .993 -5.888 24.307)"/><g fill="#3a312a"><path d="m195.25 96.227c-19.886 0-36.064-16.179-36.064-36.065s16.179-36.064 36.064-36.064 36.064 16.178 36.064 36.064-16.178 36.065-36.064 36.065zm0-69.13c-18.231 0-33.064 14.832-33.064 33.064s14.833 33.065 33.064 33.065 33.064-14.833 33.064-33.065c0-18.231-14.833-33.064-33.064-33.064z"/><path d="m195.25 29.786c-.764 0-1.382.619-1.382 1.383v2.809c0 .763.619 1.382 1.382 1.382s1.382-.619 1.382-1.382v-2.809c0-.764-.619-1.383-1.382-1.383z"/><path d="m195.25 84.964c-.764 0-1.382.619-1.382 1.383v2.809c0 .764.619 1.382 1.382 1.382s1.382-.619 1.382-1.382v-2.809c0-.764-.619-1.383-1.382-1.383z"/><path d="m216.729 38.682c-.54-.539-1.415-.539-1.955 0l-1.986 1.986c-.54.54-.54 1.415 0 1.955s1.415.54 1.955 0l1.986-1.986c.54-.539.54-1.414 0-1.955z"/><path d="m177.712 77.699c-.54-.54-1.415-.54-1.955 0l-1.986 1.986c-.54.54-.54 1.415 0 1.955s1.415.54 1.955 0l1.986-1.986c.54-.539.54-1.415 0-1.955z"/><path d="m225.626 60.162c0-.764-.619-1.382-1.383-1.382h-2.809c-.764 0-1.383.619-1.383 1.382 0 .764.619 1.382 1.383 1.382h2.809c.764 0 1.383-.619 1.383-1.382z"/><path d="m170.448 60.162c0-.764-.619-1.382-1.383-1.382h-2.809c-.764 0-1.383.619-1.383 1.382 0 .764.619 1.382 1.383 1.382h2.809c.764 0 1.383-.619 1.383-1.382z"/><path d="m216.729 81.641c.54-.54.54-1.415 0-1.955l-1.986-1.986c-.54-.54-1.415-.54-1.955 0s-.54 1.415 0 1.955l1.986 1.986c.54.539 1.415.539 1.955 0z"/><path d="m177.712 42.624c.54-.54.54-1.416 0-1.955l-1.986-1.986c-.54-.54-1.415-.54-1.955 0s-.54 1.416 0 1.956l1.986 1.986c.54.539 1.415.539 1.955-.001z"/><path d="m198.889 60.162c0 2.01-1.629 3.64-3.639 3.64s-3.64-1.629-3.64-3.64c0-2.01 1.63-3.64 3.64-3.64s3.639 1.63 3.639 3.64z"/><path d="m195.25 61.662c-.378 0-.757-.143-1.048-.427l-9.723-9.491c-.593-.579-.605-1.528-.025-2.121.579-.592 1.528-.604 2.121-.025l8.688 8.48 13.536-12.892c.599-.57 1.548-.549 2.12.052.571.6.549 1.549-.052 2.121l-14.583 13.889c-.289.276-.662.414-1.034.414z"/></g><path d="m186.97 104.64v57.64c0 14.54-11.83 26.37-26.37 26.37h-15c14.54 0 26.37-11.83 26.37-26.37v-63.35c4.54 2.74 9.61 4.71 15 5.71z" fill="#b9c239"/></g></svg>