<svg height="512" viewBox="0 0 512 512" width="512" xmlns="http://www.w3.org/2000/svg"><g id="flat"><ellipse cx="53.889" cy="428" fill="#fdc9a6" rx="16" ry="20" transform="matrix(.319 -.948 .948 .319 -368.985 342.761)"/><path d="m112 288 24.514-50.9a26 26 0 0 1 22.574-13.1h135.991a26 26 0 0 1 15.963 5.477l64.958 50.523-48 24-24-16v176h-144l8-176-14.4 32z" fill="#eae9e4"/><path d="m252 248v144a4 4 0 0 1 -8 0v-142l-34.67-26h13.33l27.74 20.8a4 4 0 0 1 1.6 3.2z" fill="#eae9e4"/><path d="m252 248v144a4 4 0 0 1 -8 0v-142l-34.67-26h13.33l27.74 20.8a4 4 0 0 1 1.6 3.2z" fill="#bbbab6"/><path d="m275.957 173.69 8.551-4.275a20.105 20.105 0 0 0 10.082-11.625 27.46 27.46 0 0 0 -6.633-28.1 27.46 27.46 0 0 0 -28.1-6.633l-.211.07a19.568 19.568 0 0 1 -14.939-1.061 19.562 19.562 0 0 0 -17.5 0 30.514 30.514 0 0 0 -11.745 10.368 42.4 42.4 0 0 0 -4.946 36.932 19.31 19.31 0 0 0 4.665 7.548l12.777 12.776 8-32h40z" fill="#7a4922"/><path d="m255.957 213.69h-4l-8 10.31h-32l16-26.31v-8h-8a8 8 0 0 1 -8-8 8 8 0 0 1 8-8h8l8-16h40v36a20 20 0 0 1 -20 20z" fill="#fdc9a6"/><path d="m227.2 78.4h57.6v49.6h-57.6z" fill="#bbbab6"/><path d="m24 464h464v24h-464z" fill="#7a4922"/><path d="m284.8 59.2c-.546 0-1.083.037-1.618.082a28.8 28.8 0 0 0 -54.364 0c-.535-.045-1.072-.082-1.618-.082a19.2 19.2 0 1 0 12.758 33.52 28.807 28.807 0 0 0 32.084 0 19.191 19.191 0 1 0 12.758-33.52z" fill="#eae9e4"/><path d="m267.486 343.386a13.362 13.362 0 0 0 2.5 15.424l14.361 14.362a4 4 0 0 0 5.657 0l14.362-14.362a13.362 13.362 0 0 0 2.5-15.424 13.362 13.362 0 0 0 -11.945-7.386h-15.484a13.361 13.361 0 0 0 -11.951 7.386z" fill="#e42a3c"/><g fill="#bbbab6"><path d="m352 432-168-.646v16l72 .277v16.369h24v-16.277l72 .277z"/><circle cx="224" cy="264" r="8"/><circle cx="224" cy="304" r="8"/><circle cx="224" cy="344" r="8"/><path d="m413.359 424.814a4 4 0 0 1 -2.879-6.777l31.663-32.819a4 4 0 1 1 5.757 5.554l-31.662 32.82a3.991 3.991 0 0 1 -2.879 1.222z"/></g><ellipse cx="73.805" cy="428" fill="#f0bf9e" rx="16" ry="20"/><ellipse cx="100.535" cy="430.526" fill="#fdc9a6" rx="20" ry="16" transform="matrix(.923 -.385 .385 .923 -157.855 71.786)"/><path d="m24 440h112a0 0 0 0 1 0 0 24 24 0 0 1 -24 24h-64a24 24 0 0 1 -24-24 0 0 0 0 1 0 0z" fill="#c7830b"/><path d="m363.308 271.3-115.308 40.7v28.223l20.973 12.665a8.258 8.258 0 0 0 12.515-6.628 8.257 8.257 0 0 0 -2.945-6.773l-10.55-8.833 14.673-6.38 10.526 4.147-4.146 10.526a9.2 9.2 0 0 0 15.851 1.779l9.348-12.726 61.436-14.26a22.135 22.135 0 0 0 15.8-29.113 22.136 22.136 0 0 0 -28.173-13.327z" fill="#fdc9a6"/><path d="m284.8 412c-12.8 0-12.8-8-25.6-8s-12.8 8-25.6 8-12.8-8-25.6-8h-8v28h136v-20c-12.8 0-12.8-8-25.6-8s-12.8 8-25.6 8z" fill="#ecab2c"/><path d="m200 392v12h8c12.8 0 12.8 8 25.6 8s12.8-8 25.6-8 12.8 8 25.6 8 12.8-8 25.6-8 12.8 8 25.6 8v-20z" fill="#e42a3c"/><path d="m153.6 320-9.6 16 40 40 24 8v24l8 8-16 16h-32l-8-16-62.021-55.819a30 30 0 0 1 -5.979-37.181l20-35z" fill="#fdc9a6"/><path d="m371.606 416h112a0 0 0 0 1 0 0 48 48 0 0 1 -48 48h-16a48 48 0 0 1 -48-48 0 0 0 0 1 0 0z" fill="#c7830b"/><path d="m441.8 374.281-3.95 4.094a11.84 11.84 0 0 0 .3 16.741 11.839 11.839 0 0 0 16.741-.3l3.949-4.093a37.894 37.894 0 0 1 9.724-7.277 43.166 43.166 0 0 0 17.411-16.713 15.165 15.165 0 0 0 -2.613-18.481 15.166 15.166 0 0 0 -18.562-1.952 43.16 43.16 0 0 0 -16.077 18 37.921 37.921 0 0 1 -6.923 9.981z" fill="#7a4922"/></g></svg>