<svg id="Icons" height="512" viewBox="0 0 60 60" width="512" xmlns="http://www.w3.org/2000/svg"><path d="m50 26a2.772 2.772 0 0 1 -.18 1 2.968 2.968 0 0 1 -2.82 2h-2a3 3 0 0 1 3 3 2.772 2.772 0 0 1 -.18 1 2.968 2.968 0 0 1 -2.82 2h-2a3 3 0 0 1 0 6h-13c-7 0-8 0-11-2a10.975 10.975 0 0 0 -3-1.36v-16.64a1.871 1.871 0 0 0 -.09-.59 9.012 9.012 0 0 0 4.79-2.89 18.456 18.456 0 0 1 2.69-3.06c4.44-4.1 5.94-2.56 8.07-6.19a11.8 11.8 0 0 0 1.56-4.61 3 3 0 0 1 5.98.16 20.525 20.525 0 0 1 -2.84 11.64.991.991 0 0 0 .84 1.53l8 .01a3 3 0 0 1 3 3 2.772 2.772 0 0 1 -.18 1 2.968 2.968 0 0 1 -2.82 2h2a3 3 0 0 1 3 3z" fill="#fdd7ad"/><path d="m47.82 21a2.968 2.968 0 0 1 -2.82 2h-4a1 1 0 0 1 0-2z" fill="#f9c795"/><path d="m49.82 27a2.968 2.968 0 0 1 -2.82 2h-6a1 1 0 0 1 0-2z" fill="#f9c795"/><path d="m16 21v18a2.006 2.006 0 0 1 -2 2h-2a2.006 2.006 0 0 1 -2-2v-18a2.006 2.006 0 0 1 2-2h2a2 2 0 0 1 1.91 1.41 1.871 1.871 0 0 1 .09.59z" fill="#3b97d3"/><rect fill="#4fba6f" height="18" rx="3" width="58" x="1" y="41"/><g fill="#ecf0f1"><path d="m19 46a1 1 0 0 0 0-2h-6a1 1 0 0 0 -1 1v10a1 1 0 0 0 1 1h6a1 1 0 0 0 0-2h-5v-3h3a1 1 0 0 0 0-2h-3v-3z"/><path d="m26 44a4 4 0 0 0 -4 4v7a1 1 0 0 0 2 0v-4h4v4a1 1 0 0 0 2 0v-7a4 4 0 0 0 -4-4zm-2 5v-1a2 2 0 0 1 4 0v1z"/><path d="m35.5 49a1.5 1.5 0 0 1 0-3 1.544 1.544 0 0 1 1.519 1.193 1 1 0 0 0 1.962-.386 3.523 3.523 0 1 0 -3.481 4.193 1.5 1.5 0 0 1 0 3 1.555 1.555 0 0 1 -1.52-1.2 1 1 0 1 0 -1.96.4 3.541 3.541 0 0 0 3.48 2.8 3.5 3.5 0 0 0 0-7z"/><path d="m47.515 44.143a1 1 0 0 0 -1.372.342l-2.143 3.571-2.143-3.571a1 1 0 0 0 -1.714 1.03l2.857 4.762v4.723a1 1 0 0 0 2 0v-4.723l2.857-4.762a1 1 0 0 0 -.342-1.372z"/></g><path d="m47.82 33a2.968 2.968 0 0 1 -2.82 2h-4a1 1 0 0 1 0-2z" fill="#f9c795"/></svg>