<svg id="Flat" height="512" viewBox="0 0 128 128" width="512" xmlns="http://www.w3.org/2000/svg"><rect fill="#e8ca95" height="66.98" rx="2.989" transform="matrix(-.885 -.466 .466 -.885 138.408 163.467)" width="48.643" x="65.067" y="31.153"/><path d="m71.161 38.138h36.449v53.023h-36.449z" fill="#f94668" transform="matrix(-.885 -.466 .466 -.885 138.399 163.477)"/><path d="m72.016 61.565h18.814v36.451h-18.814z" fill="#d63866" transform="matrix(.466 -.885 .885 .466 -27.103 114.697)"/><path d="m101.928 81.45a1.483 1.483 0 0 1 -.7-.173l-32.256-16.968a1.5 1.5 0 1 1 1.4-2.655l32.258 16.969a1.5 1.5 0 0 1 -.7 2.827z" fill="#6d383e"/><rect fill="#edd5a4" height="66.98" rx="2.989" transform="matrix(-.978 -.207 .207 -.978 119.985 131.347)" width="48.643" x="42.546" y="25.903"/><path d="m48.642 32.888h36.449v53.023h-36.449z" fill="#ffb31a" transform="matrix(-.978 -.207 .207 -.978 119.98 131.36)"/><path d="m53.918 57.911h18.809v36.45h-18.809z" fill="#ef9325" transform="matrix(.207 -.978 .978 .207 -24.288 122.296)"/><path d="m83.1 72.209a1.589 1.589 0 0 1 -.312-.032l-35.657-7.549a1.5 1.5 0 0 1 .621-2.936l35.659 7.549a1.5 1.5 0 0 1 -.309 2.968z" fill="#6d383e"/><rect fill="#f4e2ba" height="66.98" rx="2.989" transform="matrix(-.999 .033 -.033 -.999 97.52 119.708)" width="48.643" x="23.456" y="27.165"/><path d="m29.553 34.15h36.449v53.023h-36.449z" fill="#646b99" transform="matrix(-.999 .033 -.033 -.999 97.521 119.722)"/><path d="m30.113 68.356h36.45v18.81h-36.45z" fill="#596184" transform="matrix(.999 -.033 .033 .999 -2.534 1.634)"/><path d="m29.814 70.458a1.5 1.5 0 0 1 -.048-3l36.43-1.2a1.5 1.5 0 1 1 .1 3l-36.429 1.2z" fill="#6d383e"/><rect fill="#f9eacd" height="66.98" rx="2.989" transform="matrix(-.97 .244 -.244 -.97 82.899 125.906)" width="48.643" x="9.336" y="34.593"/><path d="m15.435 41.579h36.449v53.023h-36.449z" fill="#55b78b" transform="matrix(-.97 .244 -.244 -.97 82.904 125.919)"/><path d="m19.609 75.277h36.448v18.809h-36.448z" fill="#508c6d" transform="matrix(.97 -.244 .244 .97 -19.491 11.769)"/><path d="m17.862 81.5a1.5 1.5 0 0 1 -.365-2.955l35.349-8.887a1.5 1.5 0 0 1 .732 2.91l-35.349 8.89a1.548 1.548 0 0 1 -.367.042z" fill="#6d383e"/></svg>