<svg height="512" viewBox="0 0 58 52" width="512" xmlns="http://www.w3.org/2000/svg"><g id="Page-1" fill="none" fill-rule="evenodd"><g id="026---Chilli-Rating" transform="translate(0 -1)"><rect id="Rectangle" fill="#e57e25" height="16" rx="4" width="58" y="37"/><g fill="#fff"><path id="Path" d="m11.316 40.051c-.4083426-.1359362-.8578581.0046381-1.116.349l-2.2 2.933-2.2-2.933c-.25825824-.3443443-.70788563-.4847973-1.11622777-.3486833s-.68377223.5182529-.68377223.9486833v8c0 .5522847.44771525 1 1 1s1-.4477153 1-1v-5l1.2 1.6c.19679339.2391708.49027381.3777478.8.3777478s.60320661-.138577.8-.3777478l1.2-1.6v5c0 .5522847.4477153 1 1 1s1-.4477153 1-1v-8c.0001037-.4306074-.2754572-.8129281-.684-.949z"/><path id="Path" d="m53.316 40.051c-.4083426-.1359362-.8578581.0046381-1.116.349l-2.2 2.933-2.2-2.933c-.2582582-.3443443-.7078856-.4847973-1.1162278-.3486833-.4083421.136114-.6837722.5182529-.6837722.9486833v8c0 .5522847.4477153 1 1 1s1-.4477153 1-1v-5l1.2 1.6c.1967934.2391708.4902738.3777478.8.3777478s.6032066-.138577.8-.3777478l1.2-1.6v5c0 .5522847.4477153 1 1 1s1-.4477153 1-1v-8c.0001037-.4306074-.2754572-.8129281-.684-.949z"/><path id="Path" d="m19 42c.5522847 0 1-.4477153 1-1s-.4477153-1-1-1h-4c-.5522847 0-1 .4477153-1 1v8c0 .5522847.4477153 1 1 1h4c.5522847 0 1-.4477153 1-1s-.4477153-1-1-1h-3v-2h3c.5522847 0 1-.4477153 1-1s-.4477153-1-1-1h-3v-2z"/><path id="Shape" d="m25 40h-2c-.5522847 0-1 .4477153-1 1v8c0 .5522847.4477153 1 1 1h2c2.209139 0 4-1.790861 4-4v-2c0-2.209139-1.790861-4-4-4zm2 6c0 1.1045695-.8954305 2-2 2h-1v-6h1c1.1045695 0 2 .8954305 2 2z" fill-rule="nonzero"/><path id="Path" d="m43 40c-.5522847 0-1 .4477153-1 1v5.5c0 .8284271-.6715729 1.5-1.5 1.5s-1.5-.6715729-1.5-1.5v-5.5c0-.5522847-.4477153-1-1-1s-1 .4477153-1 1v5.5c0 1.9329966 1.5670034 3.5 3.5 3.5s3.5-1.5670034 3.5-3.5v-5.5c0-.5522847-.4477153-1-1-1z"/><path id="Path" d="m35 42c.5522847 0 1-.4477153 1-1s-.4477153-1-1-1h-4c-.5522847 0-1 .4477153-1 1s.4477153 1 1 1h1v6h-1c-.5522847 0-1 .4477153-1 1s.4477153 1 1 1h4c.5522847 0 1-.4477153 1-1s-.4477153-1-1-1h-1v-6z"/></g><path id="Path" d="m17.02 37c-6.8970172-5.1593111-9.71624336-14.1547759-6.9976133-22.3276816 2.7186302-8.17290568 10.3644062-13.68729889 18.9776133-13.68729889s16.2589831 5.51439321 18.9776133 13.68729889c2.7186301 8.1729057-.1005961 17.1683705-6.9976133 22.3276816z" fill="#81ccb8"/><path id="Path" d="m38.9 34.589c-.4254958.0004165-.8046584-.2684628-.9450105-.6701444-.140352-.4016816-.0111531-.8481881.3220105-1.1128556 1.5107759-1.1982796 2.7788208-2.6740448 3.736-4.348.9593517-1.672865 1.5852355-3.5158772 1.843-5.427.0748346-.5475903.5794097-.9308345 1.127-.8559999.5475903.0748345.9308346.5794096.856 1.1269999-.2933072 2.1657965-1.0033873 4.2542673-2.091 6.15-1.0833506 1.8938505-2.5179846 3.5636871-4.227 4.92-.1763329.1407884-.3953574.2173236-.621.217z" fill="#ecf0f1"/><path id="Path" d="m13.133 19.823c-.0475134.0001204-.0949724-.0032217-.142-.01-.546311-.0778915-.9262635-.5835998-.849-1.13.3055044-2.1604536 1.0206378-4.2427237 2.107-6.135 1.0859205-1.897184 2.5295917-3.56567533 4.251-4.913.279993-.2321302.6639419-.29393845 1.0026385-.16140516.3386967.1325333.5787306.43850841.626821.79901889s-.1033463.71870592-.3954595.93538627c-1.5173008 1.188991-2.7897656 2.6607984-3.747 4.334-.9602922 1.6723501-1.592603 3.5126018-1.863 5.422-.0702443.4932113-.4928119.8594934-.991.859z" fill="#ecf0f1"/><path id="Path" d="m29.66 24.01c-.635916 1.3330323-1.7287004 2.3938846-3.08 2.99-.2625007.1346003-.4552512.3746292-.53.66-1.8455976 1.1666465-4.057889 1.6083923-6.21 1.24-.433301-.0668161-.772552-.4080812-.8368022-.84177-.0642502-.4336889.161485-.8586556.5568022-1.04823 1.3595855-.5959991 2.4597566-1.6606807 3.1-3 .3912872-.8356964.6187257-1.7386613.67-2.66v-.02c.03-.82-.11-1.67-.11-3.32-.0035379-.2319378.0199538-.4634983.07-.69v-.01c.290997-1.3932496 1.5479896-2.3709105 2.97-2.31.1500556-.0066662.3003887-.0033254.45.01 1.520089.0671649 2.8870478.9453786 3.58 2.3-.01 0-.01 0 0 .01-.0415653.2276133-.0616536.4586285-.06.69 0 3.12.5 3.37-.57 6z" fill="#c03a2b"/><path id="Path" d="m26.711 16.01c-.5242737.0014764-.9606814-.4022007-1-.925-.243-3.235.8-4.653 1.718-5.273.4571277-.29336992 1.0648499-.1681961 1.3688357.2819419.3039858.4501381.1930662 1.0606229-.2498357 1.3750581-.392.265-1.024 1.068-.843 3.466.0413175.5505937-.3714214 1.030481-.922 1.072-.021.002-.047.003-.072.003z" fill="#24ae5f"/><path id="Path" d="m36.81 22.86c-2.43 5.87-6.89 6.45-9.94 6.03-.2826724-.0330527-.536568-.1885768-.6944347-.4253769s-.2037752-.5309821-.1255653-.8046231c.0747488-.2853708.2674993-.5253997.53-.66 1.3512996-.5961154 2.444084-1.6569677 3.08-2.99 1.07-2.63.57-2.88.57-6-.0016536-.2313715.0184347-.4623867.06-.69v-.01c.2939879-1.391381 1.5490644-2.3675516 2.97-2.31 1.9667759-.1288511 3.7539108 1.1405158 4.28 3.04.255957 1.6435127.0011426 3.3259858-.73 4.82z" fill="#e64c3c"/><path id="Path" d="m33.711 16.01c-.5242737.0014764-.9606814-.4022007-1-.925-.243-3.235.8-4.653 1.718-5.273.4571277-.29336992 1.0648499-.1681961 1.3688357.2819419.3039858.4501381.1930662 1.0606229-.2498357 1.3750581-.392.265-1.024 1.068-.843 3.466.0413175.5505937-.3714214 1.030481-.922 1.072-.021.002-.047.003-.072.003z" fill="#24ae5f"/></g></g></svg>